<svg width="16" height="18" viewBox="0 0 16 18" fill="none" xmlns="http://www.w3.org/2000/svg">
<path fill-rule="evenodd" clip-rule="evenodd" d="M4.87502 4.84417V4C4.87502 3.1712 5.20426 2.37634 5.79031 1.79029C6.37637 1.20424 7.17122 0.875 8.00002 0.875C8.82882 0.875 9.62368 1.20424 10.2097 1.79029C10.7958 2.37634 11.125 3.1712 11.125 4V4.84417C12.2059 4.875 12.8642 4.98583 13.3684 5.4C14.06 5.96667 14.2517 6.92833 14.6375 8.8525L15.1375 11.3525C15.6909 14.1192 15.9675 15.5025 15.2175 16.4183C14.4675 17.3342 13.0559 17.3333 10.2334 17.3333H5.76669C2.94502 17.3333 1.53336 17.3333 0.783357 16.4183C0.0333569 15.5033 0.310024 14.12 0.863357 11.3525L1.36336 8.8525C1.74836 6.92833 1.94086 5.96667 2.63169 5.4C3.13669 4.98667 3.79502 4.875 4.87586 4.84417M6.12502 4C6.12502 3.50272 6.32257 3.02581 6.6742 2.67418C7.02583 2.32254 7.50274 2.125 8.00002 2.125C8.4973 2.125 8.97422 2.32254 9.32585 2.67418C9.67748 3.02581 9.87502 3.50272 9.87502 4V4.83333H6.12502V4ZM10.5 8.16667C10.721 8.16667 10.933 8.07887 11.0893 7.92259C11.2456 7.76631 11.3334 7.55435 11.3334 7.33333C11.3334 7.11232 11.2456 6.90036 11.0893 6.74408C10.933 6.5878 10.721 6.5 10.5 6.5C10.279 6.5 10.067 6.5878 9.91077 6.74408C9.75449 6.90036 9.66669 7.11232 9.66669 7.33333C9.66669 7.55435 9.75449 7.76631 9.91077 7.92259C10.067 8.07887 10.279 8.16667 10.5 8.16667ZM6.33336 7.33333C6.33336 7.55435 6.24556 7.76631 6.08928 7.92259C5.933 8.07887 5.72104 8.16667 5.50002 8.16667C5.27901 8.16667 5.06705 8.07887 4.91077 7.92259C4.75449 7.76631 4.66669 7.55435 4.66669 7.33333C4.66669 7.11232 4.75449 6.90036 4.91077 6.74408C5.06705 6.5878 5.27901 6.5 5.50002 6.5C5.72104 6.5 5.933 6.5878 6.08928 6.74408C6.24556 6.90036 6.33336 7.11232 6.33336 7.33333Z" fill="#434343"/>
</svg>
