<svg width="18" height="23" viewBox="0 0 18 23" fill="none" xmlns="http://www.w3.org/2000/svg">
<path d="M9 1.99905C7.14348 1.99905 5.36301 2.73654 4.05025 4.0493C2.7375 5.36205 2 7.14253 2 8.99905C2 11.861 3.782 14.622 5.738 16.761C6.73814 17.8507 7.82943 18.853 9 19.757C9.17467 19.623 9.37967 19.4597 9.615 19.267C10.5548 18.4953 11.4393 17.6586 12.262 16.763C14.218 14.622 16 11.862 16 8.99905C16 7.14253 15.2625 5.36205 13.9497 4.0493C12.637 2.73654 10.8565 1.99905 9 1.99905ZM9 22.213L8.433 21.823L8.43 21.821L8.424 21.816L8.404 21.802L8.329 21.749L8.059 21.552C6.69086 20.5238 5.41988 19.3723 4.262 18.112C2.218 15.874 0 12.635 0 8.99805C3.55683e-08 6.6111 0.948211 4.32191 2.63604 2.63409C4.32387 0.946259 6.61305 -0.00195313 9 -0.00195312C11.3869 -0.00195312 13.6761 0.946259 15.364 2.63409C17.0518 4.32191 18 6.6111 18 8.99805C18 12.635 15.782 15.875 13.738 18.11C12.5804 19.3703 11.3098 20.5218 9.942 21.55C9.82805 21.6352 9.71305 21.7188 9.597 21.801L9.576 21.815L9.57 21.82L9.568 21.821L9 22.213ZM9 6.99905C8.46957 6.99905 7.96086 7.20976 7.58579 7.58483C7.21071 7.95991 7 8.46861 7 8.99905C7 9.52948 7.21071 10.0382 7.58579 10.4133C7.96086 10.7883 8.46957 10.999 9 10.999C9.53043 10.999 10.0391 10.7883 10.4142 10.4133C10.7893 10.0382 11 9.52948 11 8.99905C11 8.46861 10.7893 7.95991 10.4142 7.58483C10.0391 7.20976 9.53043 6.99905 9 6.99905ZM5 8.99905C5 7.93818 5.42143 6.92076 6.17157 6.17062C6.92172 5.42047 7.93913 4.99905 9 4.99905C10.0609 4.99905 11.0783 5.42047 11.8284 6.17062C12.5786 6.92076 13 7.93818 13 8.99905C13 10.0599 12.5786 11.0773 11.8284 11.8275C11.0783 12.5776 10.0609 12.999 9 12.999C7.93913 12.999 6.92172 12.5776 6.17157 11.8275C5.42143 11.0773 5 10.0599 5 8.99905Z" fill="#2D2D2D"/>
</svg>
